#!OML:ASF C:\Vicon Data\Big\jianyuan-12\jianyuan\Session 1\Capture.male.ASF
:FULLY-SPECIFIED
:DEGREES
223
root -13.170048 17.397517 -9.006589 -5.694717 -51.016049 16.893926
lowerback -6.392696 -1.925501 -9.942974 
upperback 2.909113 -1.466358 -2.070172 
thorax 6.907106 -1.082773 3.202457 
lowerneck 0.885347 -8.622413 -7.164466 
upperneck -6.434260 -10.931395 15.780818 
head -0.707524 -5.618526 5.891399 
rclavicle 0.000000 0.000000 
rhumerus -43.783161 -37.201125 -68.123942 
rradius 30.879500 
rwrist 39.409804 
rhand -20.821247 -5.427732 
rfingers 0.000000 
rthumb 5.546936 -35.335139 
lclavicle 0.000000 0.000000 
lhumerus -17.501493 29.122714 75.263617 
lradius 32.020886 
lwrist -41.251088 
lhand -13.092771 6.395251 
lfingers 0.000000 
lthumb 13.003764 35.969963 
rfemur -42.371359 -8.429494 17.721545 
rtibia 40.324600 
rfoot -18.249862 -9.440629 
rtoes -2.075656 
lfemur -0.966855 -3.805889 -28.400585 
ltibia 12.629182 
lfoot -27.181636 13.591278 
ltoes -29.767494 
224
root -13.219345 17.399493 -8.967579 -5.718783 -51.333279 16.923746
lowerback -6.391341 -1.911883 -9.910405 
upperback 2.906196 -1.453673 -2.052318 
thorax 6.900540 -1.075655 3.205149 
lowerneck 0.628728 -8.634791 -7.085696 
upperneck -6.193668 -10.969145 15.627251 
head -0.605519 -5.620373 5.810901 
rclavicle 0.000000 0.000000 
rhumerus -43.939557 -37.517041 -67.810417 
rradius 30.759740 
rwrist 39.676233 
rhand -20.692560 -5.442615 
rfingers 0.000000 
rthumb 5.671216 -35.346687 
lclavicle 0.000000 0.000000 
lhumerus -17.277363 28.789873 75.333169 
lradius 32.205659 
lwrist -40.977126 
lhand -13.041554 6.364882 
lfingers 0.000000 
lthumb 13.053052 35.936411 
rfemur -42.149957 -7.572528 17.404495 
rtibia 38.797065 
rfoot -18.167172 -9.682260 
rtoes -1.789066 
lfemur -0.317054 -3.812948 -28.423532 
ltibia 11.800877 
lfoot -27.065103 14.003173 
ltoes -30.048569 
225
root -13.268337 17.396418 -8.921529 -5.918041 -51.502815 17.162274
lowerback -6.414188 -1.954551 -9.988253 
upperback 2.902490 -1.498695 -2.072259 
thorax 6.918556 -1.100836 3.220537 
lowerneck 0.691152 -8.563434 -7.127230 
upperneck -6.236019 -10.871164 15.640628 
head -0.636090 -5.574813 5.829301 
rclavicle 0.000000 0.000000 
rhumerus -44.089253 -37.669079 -67.543849 
rradius 30.595457 
rwrist 39.921191 
rhand -20.628554 -5.507728 
rfingers 0.000000 
rthumb 5.733021 -35.410132 
lclavicle 0.000000 0.000000 
lhumerus -17.058689 28.603007 75.371234 
lradius 32.302984 
lwrist -40.810005 
lhand -13.171377 6.375206 
lfingers 0.000000 
lthumb 12.927948 35.954736 
rfemur -41.883984 -6.892569 16.879794 
rtibia 37.335780 
rfoot -18.140690 -9.718624 
rtoes -0.598384 
lfemur 0.382865 -3.686165 -28.612177 
ltibia 10.928978 
lfoot -26.741667 14.218305 
ltoes -30.124404 
226
root -13.318553 17.396886 -8.879162 -6.126660 -51.605914 17.314106
lowerback -6.363681 -2.008180 -10.043652 
upperback 2.954214 -1.566028 -2.083090 
thorax 6.956564 -1.138664 3.230646 
lowerneck 0.503144 -8.536747 -7.169405 
upperneck -6.096806 -10.846081 15.610430 
head -0.566909 -5.550302 5.813877 
rclavicle 0.000000 0.000000 
rhumerus -44.257062 -37.801727 -67.330777 
rradius 30.533029 
rwrist 40.266700 
rhand -20.612372 -5.645161 
rfingers 0.000000 
rthumb 5.748590 -35.547216 
lclavicle 0.000000 0.000000 
lhumerus -16.793726 28.371004 75.449281 
lradius 32.519014 
lwrist -40.392972 
lhand -13.051561 6.402147 
lfingers 0.000000 
lthumb 13.043569 35.974282 
rfemur -41.557049 -6.248049 16.391963 
rtibia 35.947343 
rfoot -18.002069 -9.889907 
rtoes -0.312741 
lfemur 1.169833 -3.662963 -28.744899 
ltibia 10.046195 
lfoot -26.515083 14.480517 
ltoes -30.381573 
227
root -13.369228 17.397655 -8.839152 -6.146993 -51.793825 17.351588
lowerback -6.435210 -2.026785 -10.041813 
upperback 2.971596 -1.582267 -2.064412 
thorax 7.019482 -1.150287 3.244738 
lowerneck 0.537599 -8.506940 -7.080694 
upperneck -6.163132 -10.800017 15.533860 
head -0.607187 -5.531072 5.782390 
rclavicle 0.000000 0.000000 
rhumerus -44.438298 -37.947092 -67.076861 
rradius 30.473513 
rwrist 40.344089 
rhand -20.502793 -5.607132 
rfingers 0.000000 
rthumb 5.854393 -35.506214 
lclavicle 0.000000 0.000000 
lhumerus -16.540972 28.011522 75.537005 
lradius 32.718173 
lwrist -39.732066 
lhand -12.960408 6.431979 
lfingers 0.000000 
lthumb 13.131361 35.998538 
rfemur -41.346618 -5.459939 15.968909 
rtibia 34.611540 
rfoot -17.969680 -10.091287 
rtoes 1.165330 
lfemur 1.883004 -3.424634 -28.776965 
ltibia 9.096521 
lfoot -26.203094 14.558877 
ltoes -30.589709 
228
root -13.417967 17.396379 -8.796695 -6.201677 -51.885378 17.451254
lowerback -6.555170 -2.080954 -10.031159 
upperback 3.024022 -1.634862 -2.077017 
thorax 7.152217 -1.181826 3.213370 
lowerneck 0.358318 -8.508775 -7.057928 
upperneck -6.039218 -10.809714 15.508490 
head -0.543366 -5.525832 5.758091 
rclavicle 0.000000 0.000000 
rhumerus -44.545543 -38.164617 -66.892794 
rradius 30.401897 
rwrist 40.553654 
rhand -20.354303 -5.574481 
rfingers 0.000000 
rthumb 5.997777 -35.469577 
lclavicle 0.000000 0.000000 
lhumerus -16.234842 27.780345 75.614392 
lradius 32.844446 
lwrist -39.609805 
lhand -13.062607 6.495539 
lfingers 0.000000 
lthumb 13.032920 36.068405 
rfemur -41.197618 -4.895941 15.568297 
rtibia 33.373005 
rfoot -17.772047 -10.392337 
rtoes 0.338371 
lfemur 2.596533 -3.279950 -28.854280 
ltibia 8.094370 
lfoot -25.799964 14.652333 
ltoes -30.684276 
229
root -13.469395 17.395051 -8.756601 -6.366379 -52.001506 17.528275
lowerback -6.483771 -2.141005 -10.079294 
upperback 3.056374 -1.721541 -2.022863 
thorax 7.161629 -1.229659 3.286618 
lowerneck 0.264589 -8.437992 -7.264886 
upperneck -5.952346 -10.724050 15.569355 
head -0.496628 -5.474759 5.804563 
rclavicle 0.000000 0.000000 
rhumerus -44.655280 -38.111346 -66.713700 
rradius 30.382198 
rwrist 40.669880 
rhand -20.249320 -5.513113 
rfingers 0.000000 
rthumb 6.099091 -35.405308 
lclavicle 0.000000 0.000000 
lhumerus -16.132764 27.644020 75.683087 
lradius 33.048449 
lwrist -39.470824 
lhand -12.994925 6.437497 
lfingers 0.000000 
lthumb 13.098148 36.006136 
rfemur -40.883660 -4.270711 15.162860 
rtibia 32.224342 
rfoot -17.643918 -10.582224 
rtoes 0.052633 
lfemur 3.434861 -3.093408 -28.904553 
ltibia 7.133788 
lfoot -25.415382 14.794252 
ltoes -30.969210 
230
root -13.518510 17.395264 -8.718358 -6.516478 -52.060210 17.630811
lowerback -6.442402 -2.191650 -10.128481 
upperback 3.083379 -1.788399 -2.010361 
thorax 7.178945 -1.266399 3.318297 
lowerneck 0.262116 -8.387527 -7.367310 
upperneck -5.985481 -10.652967 15.622953 
head -0.504702 -5.439147 5.840264 
rclavicle 0.000000 0.000000 
rhumerus -44.780817 -38.198446 -66.490916 
rradius 30.228511 
rwrist 40.714534 
rhand -20.329924 -5.387021 
rfingers 0.000000 
rthumb 6.021272 -35.281454 
lclavicle 0.000000 0.000000 
lhumerus -15.938346 27.560903 75.730729 
lradius 33.107233 
lwrist -39.535192 
lhand -12.993403 6.327594 
lfingers 0.000000 
lthumb 13.099595 35.896158 
rfemur -40.629667 -3.705329 14.705351 
rtibia 31.201106 
rfoot -17.575993 -10.780824 
rtoes -0.061319 
lfemur 4.249519 -2.968196 -28.981965 
ltibia 6.131142 
lfoot -24.980605 14.948907 
ltoes -31.283327 
231
root -13.566392 17.393969 -8.679746 -6.612717 -52.134889 17.773460
lowerback -6.482427 -2.251881 -10.164385 
upperback 3.063900 -1.861066 -2.017235 
thorax 7.192610 -1.303199 3.320038 
lowerneck 0.183628 -8.343402 -7.346287 
upperneck -5.857289 -10.607247 15.527166 
head -0.467183 -5.409442 5.802067 
rclavicle 0.000000 0.000000 
rhumerus -44.991598 -38.364077 -66.190311 
rradius 30.088853 
rwrist 40.959835 
rhand -20.372680 -5.258140 
rfingers 0.000000 
rthumb 5.980022 -35.153770 
lclavicle 0.000000 0.000000 
lhumerus -15.796774 27.397104 75.727753 
lradius 33.164461 
lwrist -39.385390 
lhand -13.218116 6.373874 
lfingers 0.000000 
lthumb 12.882884 35.956218 
rfemur -40.509983 -3.156055 14.236480 
rtibia 30.271797 
rfoot -17.531144 -10.971938 
rtoes 0.906165 
lfemur 5.046543 -2.838174 -29.077512 
ltibia 4.949644 
lfoot -24.431221 15.168614 
ltoes -31.738466 
232
root -13.614408 17.395566 -8.642618 -6.628952 -52.199647 17.773738
lowerback -6.479786 -2.287967 -10.117491 
upperback 3.063675 -1.916126 -1.997350 
thorax 7.196792 -1.329005 3.307652 
lowerneck 0.079963 -8.346475 -7.405548 
upperneck -5.726014 -10.624633 15.503108 
head -0.408199 -5.409724 5.794549 
rclavicle 0.000000 0.000000 
rhumerus -45.154459 -38.356559 -66.029988 
rradius 30.080771 
rwrist 41.035109 
rhand -20.265172 -5.334937 
rfingers 0.000000 
rthumb 6.083846 -35.227541 
lclavicle 0.000000 0.000000 
lhumerus -15.712383 26.945738 75.768538 
lradius 33.391600 
lwrist -39.075645 
lhand -13.218492 6.497547 
lfingers 0.000000 
lthumb 12.882508 36.079985 
rfemur -40.369959 -2.711915 13.933502 
rtibia 29.440957 
rfoot -17.422790 -11.212516 
rtoes 1.466029 
lfemur 5.986076 -2.724003 -29.068491 
ltibia 3.530675 
lfoot -23.735893 15.448192 
ltoes -32.193779 
